<svg width="62" height="88" viewBox="0 0 62 88" fill="none" xmlns="http://www.w3.org/2000/svg">
<path d="M41.0588 61.5882V87.25H20.5294V71.8529H15.3971C11.3135 71.8529 7.3972 70.2308 4.50969 67.3432C1.62219 64.4557 0 60.5394 0 56.4559V41.0588C0 39.6976 0.540729 38.3922 1.50323 37.4297C2.46574 36.4672 3.77117 35.9265 5.13235 35.9265C6.49354 35.9265 7.79897 36.4672 8.76147 37.4297C9.72398 38.3922 10.2647 39.6976 10.2647 41.0588V56.4559C10.2647 59.33 12.5743 61.5882 15.3971 61.5882H20.5294V10.2647C20.5294 7.54234 21.6109 4.93147 23.5359 3.00646C25.4609 1.08146 28.0717 0 30.7941 0C33.5165 0 36.1274 1.08146 38.0524 3.00646C39.9774 4.93147 41.0588 7.54234 41.0588 10.2647V51.3235H46.1912C47.5524 51.3235 48.8578 50.7828 49.8203 49.8203C50.7828 48.8578 51.3235 47.5524 51.3235 46.1912V35.9265C51.3235 34.5653 51.8643 33.2599 52.8268 32.2973C53.7893 31.3348 55.0947 30.7941 56.4559 30.7941C57.8171 30.7941 59.1225 31.3348 60.085 32.2973C61.0475 33.2599 61.5882 34.5653 61.5882 35.9265V46.1912C61.5882 50.2747 59.9661 54.191 57.0785 57.0785C54.191 59.9661 50.2747 61.5882 46.1912 61.5882H41.0588Z" fill="black"/>
</svg>
