<svg width="48" height="47" viewBox="0 0 48 47" fill="none" xmlns="http://www.w3.org/2000/svg">
<path d="M24 39C24 39 33 43 36 31C39 19 24 39 24 39Z" fill="#B1CC33" stroke="#B1CC33" stroke-width="1.8" stroke-miterlimit="10" stroke-linecap="round" stroke-linejoin="round"/>
<path d="M25 32C25 32 31.125 29.32 31.651 32.837C31.801 33.843 31.408 34.855 30.736 35.618L26 41C26.002 41 32.43 42.91 31.167 44.417C29 47 20 45 20 45L21 40C5.003 44 1.002 29.006 1 29C1.005 29.004 15.168 40.665 21.083 30.833C27 21 24.167 1.16698 36.583 1.58298C44.941 1.86298 46.427 6.29798 46.506 9.16598C46.544 10.559 46.25 11.583 46.25 11.583C46.1842 12.1006 46.0776 12.6122 45.931 13.113C44.777 16.949 41.671 16.113 38.833 17.083C35.667 18.167 36.75 21.499 36.75 21.5C42.5 20 42 27 40 25C38 23 36.833 26.333 36.833 26.333C36.833 26.333 37 33 35 35" fill="#B1CC33"/>
<path d="M25 32C25 32 31.125 29.32 31.651 32.837C31.801 33.843 31.408 34.855 30.736 35.618L26 41C26.002 41 32.43 42.91 31.167 44.417C29 47 20 45 20 45L21 40C5.003 44 1.002 29.006 1 29C1.005 29.004 15.168 40.665 21.083 30.833C27 21 24.167 1.16698 36.583 1.58298C44.941 1.86298 46.427 6.29798 46.506 9.16598C46.544 10.559 46.25 11.583 46.25 11.583C46.1842 12.1006 46.0776 12.6122 45.931 13.113C44.777 16.949 41.671 16.113 38.833 17.083C35.667 18.167 36.75 21.499 36.75 21.5C42.5 20 42 27 40 25C38 23 36.833 26.333 36.833 26.333C36.833 26.333 37 33 35 35" stroke="#B1CC33" stroke-width="1.8" stroke-miterlimit="10" stroke-linecap="round" stroke-linejoin="round"/>
<path d="M37 27C39 27 41 30 41 30C42 34 36.583 38.333 36.583 38.333C36.583 38.333 48 41 38.667 41.333C29.333 41.667 32 39 32 39C32 39 35 37 37 30" fill="#5C9E31"/>
<path d="M37 27C39 27 41 30 41 30C42 34 36.583 38.333 36.583 38.333C36.583 38.333 48 41 38.667 41.333C29.333 41.667 32 39 32 39C32 39 35 37 37 30" stroke="#5C9E31" stroke-width="1.8" stroke-miterlimit="10"/>
<path d="M29 25C29 25 31 21.167 33.5 23.583C36 26 33 27 32 26C31 25 30 28 30 28" stroke="black" stroke-width="2" stroke-miterlimit="10" stroke-linecap="round" stroke-linejoin="round"/>
<path d="M25 32C25 32 31.125 29.32 31.651 32.837C31.801 33.843 31.408 34.855 30.736 35.618L26 41C26 41 32.43 42.91 31.167 44.417C29 47 20 45 20 45L21 40C5 44 1 29 1 29C1 29 15.167 40.667 21.083 30.833C26.999 20.999 24.167 1.16698 36.583 1.58298C44.941 1.86298 46.427 6.29798 46.506 9.16598C46.544 10.559 46.25 11.583 46.25 11.583C46.1842 12.1006 46.0776 12.6122 45.931 13.113C44.777 16.949 41.671 16.113 38.833 17.083C35.667 18.167 36.75 21.5 36.75 21.5C42.5 20 42 27 40 25C38 23 36.833 26.333 36.833 26.333C36.833 26.333 37 33 35 35" stroke="black" stroke-width="2" stroke-miterlimit="10" stroke-linecap="round" stroke-linejoin="round"/>
<path d="M40.5 28.833C44 31.667 36.583 38.333 36.583 38.333C36.583 38.333 48 41 38.667 41.333C29.333 41.667 32 39 32 39" stroke="black" stroke-width="2" stroke-miterlimit="10" stroke-linecap="round" stroke-linejoin="round"/>
</svg>
